<?xml version="1.0" encoding="utf-8" standalone="no"?>
<!DOCTYPE svg PUBLIC "-//W3C//DTD SVG 1.1//EN"
  "http://www.w3.org/Graphics/SVG/1.1/DTD/svg11.dtd">
<svg xmlns:xlink="http://www.w3.org/1999/xlink" width="432pt" height="288pt" viewBox="0 0 432 288" xmlns="http://www.w3.org/2000/svg" version="1.1">
 <metadata>
  <rdf:RDF xmlns:dc="http://purl.org/dc/elements/1.1/" xmlns:cc="http://creativecommons.org/ns#" xmlns:rdf="http://www.w3.org/1999/02/22-rdf-syntax-ns#">
   <cc:Work>
    <dc:type rdf:resource="http://purl.org/dc/dcmitype/StillImage"/>
    <dc:date>2023-06-05T16:25:40.704749</dc:date>
    <dc:format>image/svg+xml</dc:format>
    <dc:creator>
     <cc:Agent>
      <dc:title>Matplotlib v3.5.1, https://matplotlib.org/</dc:title>
     </cc:Agent>
    </dc:creator>
   </cc:Work>
  </rdf:RDF>
 </metadata>
 <defs>
  <style type="text/css">*{stroke-linejoin: round; stroke-linecap: butt}</style>
 </defs>
 <g id="figure_1">
  <g id="patch_1">
   <path d="M 0 288 
L 432 288 
L 432 0 
L 0 0 
L 0 288 
z
" style="fill: none"/>
  </g>
  <g id="axes_1">
   <g id="patch_2">
    <path d="M 54 252 
L 388.8 252 
L 388.8 34.56 
L 54 34.56 
z
" style="fill: #ffffff"/>
   </g>
   <g id="matplotlib.axis_1">
    <g id="xtick_1">
     <g id="line2d_1">
      <defs>
       <path id="m29a31c6b26" d="M 0 0 
L 0 3.5 
" style="stroke: #000000; stroke-width: 0.8"/>
      </defs>
      <g>
       <use xlink:href="#m29a31c6b26" x="69.218182" y="252" style="stroke: #000000; stroke-width: 0.8"/>
      </g>
     </g>
     <g id="text_1">
      <!-- $\mathdefault{10^{-3}}$ -->
      <g transform="translate(57.468182 266.598437)scale(0.1 -0.1)">
       <defs>
        <path id="DejaVuSans-31" d="M 794 531 
L 1825 531 
L 1825 4091 
L 703 3866 
L 703 4441 
L 1819 4666 
L 2450 4666 
L 2450 531 
L 3481 531 
L 3481 0 
L 794 0 
L 794 531 
z
" transform="scale(0.015625)"/>
        <path id="DejaVuSans-30" d="M 2034 4250 
Q 1547 4250 1301 3770 
Q 1056 3291 1056 2328 
Q 1056 1369 1301 889 
Q 1547 409 2034 409 
Q 2525 409 2770 889 
Q 3016 1369 3016 2328 
Q 3016 3291 2770 3770 
Q 2525 4250 2034 4250 
z
M 2034 4750 
Q 2819 4750 3233 4129 
Q 3647 3509 3647 2328 
Q 3647 1150 3233 529 
Q 2819 -91 2034 -91 
Q 1250 -91 836 529 
Q 422 1150 422 2328 
Q 422 3509 836 4129 
Q 1250 4750 2034 4750 
z
" transform="scale(0.015625)"/>
        <path id="DejaVuSans-2212" d="M 678 2272 
L 4684 2272 
L 4684 1741 
L 678 1741 
L 678 2272 
z
" transform="scale(0.015625)"/>
        <path id="DejaVuSans-33" d="M 2597 2516 
Q 3050 2419 3304 2112 
Q 3559 1806 3559 1356 
Q 3559 666 3084 287 
Q 2609 -91 1734 -91 
Q 1441 -91 1130 -33 
Q 819 25 488 141 
L 488 750 
Q 750 597 1062 519 
Q 1375 441 1716 441 
Q 2309 441 2620 675 
Q 2931 909 2931 1356 
Q 2931 1769 2642 2001 
Q 2353 2234 1838 2234 
L 1294 2234 
L 1294 2753 
L 1863 2753 
Q 2328 2753 2575 2939 
Q 2822 3125 2822 3475 
Q 2822 3834 2567 4026 
Q 2313 4219 1838 4219 
Q 1578 4219 1281 4162 
Q 984 4106 628 3988 
L 628 4550 
Q 988 4650 1302 4700 
Q 1616 4750 1894 4750 
Q 2613 4750 3031 4423 
Q 3450 4097 3450 3541 
Q 3450 3153 3228 2886 
Q 3006 2619 2597 2516 
z
" transform="scale(0.015625)"/>
       </defs>
       <use xlink:href="#DejaVuSans-31" transform="translate(0 0.765625)"/>
       <use xlink:href="#DejaVuSans-30" transform="translate(63.623047 0.765625)"/>
       <use xlink:href="#DejaVuSans-2212" transform="translate(128.203125 39.046875)scale(0.7)"/>
       <use xlink:href="#DejaVuSans-33" transform="translate(186.855469 39.046875)scale(0.7)"/>
      </g>
     </g>
    </g>
    <g id="xtick_2">
     <g id="line2d_2">
      <g>
       <use xlink:href="#m29a31c6b26" x="221.4" y="252" style="stroke: #000000; stroke-width: 0.8"/>
      </g>
     </g>
     <g id="text_2">
      <!-- $\mathdefault{10^{-2}}$ -->
      <g transform="translate(209.65 266.598437)scale(0.1 -0.1)">
       <defs>
        <path id="DejaVuSans-32" d="M 1228 531 
L 3431 531 
L 3431 0 
L 469 0 
L 469 531 
Q 828 903 1448 1529 
Q 2069 2156 2228 2338 
Q 2531 2678 2651 2914 
Q 2772 3150 2772 3378 
Q 2772 3750 2511 3984 
Q 2250 4219 1831 4219 
Q 1534 4219 1204 4116 
Q 875 4013 500 3803 
L 500 4441 
Q 881 4594 1212 4672 
Q 1544 4750 1819 4750 
Q 2544 4750 2975 4387 
Q 3406 4025 3406 3419 
Q 3406 3131 3298 2873 
Q 3191 2616 2906 2266 
Q 2828 2175 2409 1742 
Q 1991 1309 1228 531 
z
" transform="scale(0.015625)"/>
       </defs>
       <use xlink:href="#DejaVuSans-31" transform="translate(0 0.765625)"/>
       <use xlink:href="#DejaVuSans-30" transform="translate(63.623047 0.765625)"/>
       <use xlink:href="#DejaVuSans-2212" transform="translate(128.203125 39.046875)scale(0.7)"/>
       <use xlink:href="#DejaVuSans-32" transform="translate(186.855469 39.046875)scale(0.7)"/>
      </g>
     </g>
    </g>
    <g id="xtick_3">
     <g id="line2d_3">
      <g>
       <use xlink:href="#m29a31c6b26" x="373.581818" y="252" style="stroke: #000000; stroke-width: 0.8"/>
      </g>
     </g>
     <g id="text_3">
      <!-- $\mathdefault{10^{-1}}$ -->
      <g transform="translate(361.831818 266.598437)scale(0.1 -0.1)">
       <use xlink:href="#DejaVuSans-31" transform="translate(0 0.684375)"/>
       <use xlink:href="#DejaVuSans-30" transform="translate(63.623047 0.684375)"/>
       <use xlink:href="#DejaVuSans-2212" transform="translate(128.203125 38.965625)scale(0.7)"/>
       <use xlink:href="#DejaVuSans-31" transform="translate(186.855469 38.965625)scale(0.7)"/>
      </g>
     </g>
    </g>
    <g id="xtick_4">
     <g id="line2d_4">
      <defs>
       <path id="m4df9d0c181" d="M 0 0 
L 0 2 
" style="stroke: #000000; stroke-width: 0.6"/>
      </defs>
      <g>
       <use xlink:href="#m4df9d0c181" x="54.47024" y="252" style="stroke: #000000; stroke-width: 0.6"/>
      </g>
     </g>
    </g>
    <g id="xtick_5">
     <g id="line2d_5">
      <g>
       <use xlink:href="#m4df9d0c181" x="62.254724" y="252" style="stroke: #000000; stroke-width: 0.6"/>
      </g>
     </g>
    </g>
    <g id="xtick_6">
     <g id="line2d_6">
      <g>
       <use xlink:href="#m4df9d0c181" x="115.029474" y="252" style="stroke: #000000; stroke-width: 0.6"/>
      </g>
     </g>
    </g>
    <g id="xtick_7">
     <g id="line2d_7">
      <g>
       <use xlink:href="#m4df9d0c181" x="141.827362" y="252" style="stroke: #000000; stroke-width: 0.6"/>
      </g>
     </g>
    </g>
    <g id="xtick_8">
     <g id="line2d_8">
      <g>
       <use xlink:href="#m4df9d0c181" x="160.840766" y="252" style="stroke: #000000; stroke-width: 0.6"/>
      </g>
     </g>
    </g>
    <g id="xtick_9">
     <g id="line2d_9">
      <g>
       <use xlink:href="#m4df9d0c181" x="175.588708" y="252" style="stroke: #000000; stroke-width: 0.6"/>
      </g>
     </g>
    </g>
    <g id="xtick_10">
     <g id="line2d_10">
      <g>
       <use xlink:href="#m4df9d0c181" x="187.638654" y="252" style="stroke: #000000; stroke-width: 0.6"/>
      </g>
     </g>
    </g>
    <g id="xtick_11">
     <g id="line2d_11">
      <g>
       <use xlink:href="#m4df9d0c181" x="197.826738" y="252" style="stroke: #000000; stroke-width: 0.6"/>
      </g>
     </g>
    </g>
    <g id="xtick_12">
     <g id="line2d_12">
      <g>
       <use xlink:href="#m4df9d0c181" x="206.652058" y="252" style="stroke: #000000; stroke-width: 0.6"/>
      </g>
     </g>
    </g>
    <g id="xtick_13">
     <g id="line2d_13">
      <g>
       <use xlink:href="#m4df9d0c181" x="214.436542" y="252" style="stroke: #000000; stroke-width: 0.6"/>
      </g>
     </g>
    </g>
    <g id="xtick_14">
     <g id="line2d_14">
      <g>
       <use xlink:href="#m4df9d0c181" x="267.211292" y="252" style="stroke: #000000; stroke-width: 0.6"/>
      </g>
     </g>
    </g>
    <g id="xtick_15">
     <g id="line2d_15">
      <g>
       <use xlink:href="#m4df9d0c181" x="294.00918" y="252" style="stroke: #000000; stroke-width: 0.6"/>
      </g>
     </g>
    </g>
    <g id="xtick_16">
     <g id="line2d_16">
      <g>
       <use xlink:href="#m4df9d0c181" x="313.022584" y="252" style="stroke: #000000; stroke-width: 0.6"/>
      </g>
     </g>
    </g>
    <g id="xtick_17">
     <g id="line2d_17">
      <g>
       <use xlink:href="#m4df9d0c181" x="327.770526" y="252" style="stroke: #000000; stroke-width: 0.6"/>
      </g>
     </g>
    </g>
    <g id="xtick_18">
     <g id="line2d_18">
      <g>
       <use xlink:href="#m4df9d0c181" x="339.820472" y="252" style="stroke: #000000; stroke-width: 0.6"/>
      </g>
     </g>
    </g>
    <g id="xtick_19">
     <g id="line2d_19">
      <g>
       <use xlink:href="#m4df9d0c181" x="350.008556" y="252" style="stroke: #000000; stroke-width: 0.6"/>
      </g>
     </g>
    </g>
    <g id="xtick_20">
     <g id="line2d_20">
      <g>
       <use xlink:href="#m4df9d0c181" x="358.833876" y="252" style="stroke: #000000; stroke-width: 0.6"/>
      </g>
     </g>
    </g>
    <g id="xtick_21">
     <g id="line2d_21">
      <g>
       <use xlink:href="#m4df9d0c181" x="366.61836" y="252" style="stroke: #000000; stroke-width: 0.6"/>
      </g>
     </g>
    </g>
    <g id="text_4">
     <!-- $\gamma$ for loss and dephasing -->
     <g transform="translate(160.15 280.278125)scale(0.1 -0.1)">
      <defs>
       <path id="DejaVuSans-Oblique-3b3" d="M 1491 2950 
L 1838 788 
L 3456 3500 
L 4066 3500 
L 1972 0 
L 1713 -1331 
L 1138 -1331 
L 1397 0 
L 988 2613 
Q 925 3006 628 3006 
L 475 3006 
L 569 3500 
L 788 3500 
Q 1403 3500 1491 2950 
z
" transform="scale(0.015625)"/>
       <path id="DejaVuSans-20" transform="scale(0.015625)"/>
       <path id="DejaVuSans-66" d="M 2375 4863 
L 2375 4384 
L 1825 4384 
Q 1516 4384 1395 4259 
Q 1275 4134 1275 3809 
L 1275 3500 
L 2222 3500 
L 2222 3053 
L 1275 3053 
L 1275 0 
L 697 0 
L 697 3053 
L 147 3053 
L 147 3500 
L 697 3500 
L 697 3744 
Q 697 4328 969 4595 
Q 1241 4863 1831 4863 
L 2375 4863 
z
" transform="scale(0.015625)"/>
       <path id="DejaVuSans-6f" d="M 1959 3097 
Q 1497 3097 1228 2736 
Q 959 2375 959 1747 
Q 959 1119 1226 758 
Q 1494 397 1959 397 
Q 2419 397 2687 759 
Q 2956 1122 2956 1747 
Q 2956 2369 2687 2733 
Q 2419 3097 1959 3097 
z
M 1959 3584 
Q 2709 3584 3137 3096 
Q 3566 2609 3566 1747 
Q 3566 888 3137 398 
Q 2709 -91 1959 -91 
Q 1206 -91 779 398 
Q 353 888 353 1747 
Q 353 2609 779 3096 
Q 1206 3584 1959 3584 
z
" transform="scale(0.015625)"/>
       <path id="DejaVuSans-72" d="M 2631 2963 
Q 2534 3019 2420 3045 
Q 2306 3072 2169 3072 
Q 1681 3072 1420 2755 
Q 1159 2438 1159 1844 
L 1159 0 
L 581 0 
L 581 3500 
L 1159 3500 
L 1159 2956 
Q 1341 3275 1631 3429 
Q 1922 3584 2338 3584 
Q 2397 3584 2469 3576 
Q 2541 3569 2628 3553 
L 2631 2963 
z
" transform="scale(0.015625)"/>
       <path id="DejaVuSans-6c" d="M 603 4863 
L 1178 4863 
L 1178 0 
L 603 0 
L 603 4863 
z
" transform="scale(0.015625)"/>
       <path id="DejaVuSans-73" d="M 2834 3397 
L 2834 2853 
Q 2591 2978 2328 3040 
Q 2066 3103 1784 3103 
Q 1356 3103 1142 2972 
Q 928 2841 928 2578 
Q 928 2378 1081 2264 
Q 1234 2150 1697 2047 
L 1894 2003 
Q 2506 1872 2764 1633 
Q 3022 1394 3022 966 
Q 3022 478 2636 193 
Q 2250 -91 1575 -91 
Q 1294 -91 989 -36 
Q 684 19 347 128 
L 347 722 
Q 666 556 975 473 
Q 1284 391 1588 391 
Q 1994 391 2212 530 
Q 2431 669 2431 922 
Q 2431 1156 2273 1281 
Q 2116 1406 1581 1522 
L 1381 1569 
Q 847 1681 609 1914 
Q 372 2147 372 2553 
Q 372 3047 722 3315 
Q 1072 3584 1716 3584 
Q 2034 3584 2315 3537 
Q 2597 3491 2834 3397 
z
" transform="scale(0.015625)"/>
       <path id="DejaVuSans-61" d="M 2194 1759 
Q 1497 1759 1228 1600 
Q 959 1441 959 1056 
Q 959 750 1161 570 
Q 1363 391 1709 391 
Q 2188 391 2477 730 
Q 2766 1069 2766 1631 
L 2766 1759 
L 2194 1759 
z
M 3341 1997 
L 3341 0 
L 2766 0 
L 2766 531 
Q 2569 213 2275 61 
Q 1981 -91 1556 -91 
Q 1019 -91 701 211 
Q 384 513 384 1019 
Q 384 1609 779 1909 
Q 1175 2209 1959 2209 
L 2766 2209 
L 2766 2266 
Q 2766 2663 2505 2880 
Q 2244 3097 1772 3097 
Q 1472 3097 1187 3025 
Q 903 2953 641 2809 
L 641 3341 
Q 956 3463 1253 3523 
Q 1550 3584 1831 3584 
Q 2591 3584 2966 3190 
Q 3341 2797 3341 1997 
z
" transform="scale(0.015625)"/>
       <path id="DejaVuSans-6e" d="M 3513 2113 
L 3513 0 
L 2938 0 
L 2938 2094 
Q 2938 2591 2744 2837 
Q 2550 3084 2163 3084 
Q 1697 3084 1428 2787 
Q 1159 2491 1159 1978 
L 1159 0 
L 581 0 
L 581 3500 
L 1159 3500 
L 1159 2956 
Q 1366 3272 1645 3428 
Q 1925 3584 2291 3584 
Q 2894 3584 3203 3211 
Q 3513 2838 3513 2113 
z
" transform="scale(0.015625)"/>
       <path id="DejaVuSans-64" d="M 2906 2969 
L 2906 4863 
L 3481 4863 
L 3481 0 
L 2906 0 
L 2906 525 
Q 2725 213 2448 61 
Q 2172 -91 1784 -91 
Q 1150 -91 751 415 
Q 353 922 353 1747 
Q 353 2572 751 3078 
Q 1150 3584 1784 3584 
Q 2172 3584 2448 3432 
Q 2725 3281 2906 2969 
z
M 947 1747 
Q 947 1113 1208 752 
Q 1469 391 1925 391 
Q 2381 391 2643 752 
Q 2906 1113 2906 1747 
Q 2906 2381 2643 2742 
Q 2381 3103 1925 3103 
Q 1469 3103 1208 2742 
Q 947 2381 947 1747 
z
" transform="scale(0.015625)"/>
       <path id="DejaVuSans-65" d="M 3597 1894 
L 3597 1613 
L 953 1613 
Q 991 1019 1311 708 
Q 1631 397 2203 397 
Q 2534 397 2845 478 
Q 3156 559 3463 722 
L 3463 178 
Q 3153 47 2828 -22 
Q 2503 -91 2169 -91 
Q 1331 -91 842 396 
Q 353 884 353 1716 
Q 353 2575 817 3079 
Q 1281 3584 2069 3584 
Q 2775 3584 3186 3129 
Q 3597 2675 3597 1894 
z
M 3022 2063 
Q 3016 2534 2758 2815 
Q 2500 3097 2075 3097 
Q 1594 3097 1305 2825 
Q 1016 2553 972 2059 
L 3022 2063 
z
" transform="scale(0.015625)"/>
       <path id="DejaVuSans-70" d="M 1159 525 
L 1159 -1331 
L 581 -1331 
L 581 3500 
L 1159 3500 
L 1159 2969 
Q 1341 3281 1617 3432 
Q 1894 3584 2278 3584 
Q 2916 3584 3314 3078 
Q 3713 2572 3713 1747 
Q 3713 922 3314 415 
Q 2916 -91 2278 -91 
Q 1894 -91 1617 61 
Q 1341 213 1159 525 
z
M 3116 1747 
Q 3116 2381 2855 2742 
Q 2594 3103 2138 3103 
Q 1681 3103 1420 2742 
Q 1159 2381 1159 1747 
Q 1159 1113 1420 752 
Q 1681 391 2138 391 
Q 2594 391 2855 752 
Q 3116 1113 3116 1747 
z
" transform="scale(0.015625)"/>
       <path id="DejaVuSans-68" d="M 3513 2113 
L 3513 0 
L 2938 0 
L 2938 2094 
Q 2938 2591 2744 2837 
Q 2550 3084 2163 3084 
Q 1697 3084 1428 2787 
Q 1159 2491 1159 1978 
L 1159 0 
L 581 0 
L 581 4863 
L 1159 4863 
L 1159 2956 
Q 1366 3272 1645 3428 
Q 1925 3584 2291 3584 
Q 2894 3584 3203 3211 
Q 3513 2838 3513 2113 
z
" transform="scale(0.015625)"/>
       <path id="DejaVuSans-69" d="M 603 3500 
L 1178 3500 
L 1178 0 
L 603 0 
L 603 3500 
z
M 603 4863 
L 1178 4863 
L 1178 4134 
L 603 4134 
L 603 4863 
z
" transform="scale(0.015625)"/>
       <path id="DejaVuSans-67" d="M 2906 1791 
Q 2906 2416 2648 2759 
Q 2391 3103 1925 3103 
Q 1463 3103 1205 2759 
Q 947 2416 947 1791 
Q 947 1169 1205 825 
Q 1463 481 1925 481 
Q 2391 481 2648 825 
Q 2906 1169 2906 1791 
z
M 3481 434 
Q 3481 -459 3084 -895 
Q 2688 -1331 1869 -1331 
Q 1566 -1331 1297 -1286 
Q 1028 -1241 775 -1147 
L 775 -588 
Q 1028 -725 1275 -790 
Q 1522 -856 1778 -856 
Q 2344 -856 2625 -561 
Q 2906 -266 2906 331 
L 2906 616 
Q 2728 306 2450 153 
Q 2172 0 1784 0 
Q 1141 0 747 490 
Q 353 981 353 1791 
Q 353 2603 747 3093 
Q 1141 3584 1784 3584 
Q 2172 3584 2450 3431 
Q 2728 3278 2906 2969 
L 2906 3500 
L 3481 3500 
L 3481 434 
z
" transform="scale(0.015625)"/>
      </defs>
      <use xlink:href="#DejaVuSans-Oblique-3b3" transform="translate(0 0.015625)"/>
      <use xlink:href="#DejaVuSans-20" transform="translate(59.179688 0.015625)"/>
      <use xlink:href="#DejaVuSans-66" transform="translate(90.966797 0.015625)"/>
      <use xlink:href="#DejaVuSans-6f" transform="translate(126.171875 0.015625)"/>
      <use xlink:href="#DejaVuSans-72" transform="translate(187.353516 0.015625)"/>
      <use xlink:href="#DejaVuSans-20" transform="translate(228.466797 0.015625)"/>
      <use xlink:href="#DejaVuSans-6c" transform="translate(260.253906 0.015625)"/>
      <use xlink:href="#DejaVuSans-6f" transform="translate(288.037109 0.015625)"/>
      <use xlink:href="#DejaVuSans-73" transform="translate(349.21875 0.015625)"/>
      <use xlink:href="#DejaVuSans-73" transform="translate(401.318359 0.015625)"/>
      <use xlink:href="#DejaVuSans-20" transform="translate(453.417969 0.015625)"/>
      <use xlink:href="#DejaVuSans-61" transform="translate(485.205078 0.015625)"/>
      <use xlink:href="#DejaVuSans-6e" transform="translate(546.484375 0.015625)"/>
      <use xlink:href="#DejaVuSans-64" transform="translate(609.863281 0.015625)"/>
      <use xlink:href="#DejaVuSans-20" transform="translate(673.339844 0.015625)"/>
      <use xlink:href="#DejaVuSans-64" transform="translate(705.126953 0.015625)"/>
      <use xlink:href="#DejaVuSans-65" transform="translate(768.603516 0.015625)"/>
      <use xlink:href="#DejaVuSans-70" transform="translate(830.126953 0.015625)"/>
      <use xlink:href="#DejaVuSans-68" transform="translate(893.603516 0.015625)"/>
      <use xlink:href="#DejaVuSans-61" transform="translate(956.982422 0.015625)"/>
      <use xlink:href="#DejaVuSans-73" transform="translate(1018.261719 0.015625)"/>
      <use xlink:href="#DejaVuSans-69" transform="translate(1070.361328 0.015625)"/>
      <use xlink:href="#DejaVuSans-6e" transform="translate(1098.144531 0.015625)"/>
      <use xlink:href="#DejaVuSans-67" transform="translate(1161.523438 0.015625)"/>
     </g>
    </g>
   </g>
   <g id="matplotlib.axis_2">
    <g id="ytick_1">
     <g id="line2d_22">
      <defs>
       <path id="maf3970a4a4" d="M 0 0 
L -3.5 0 
" style="stroke: #000000; stroke-width: 0.8"/>
      </defs>
      <g>
       <use xlink:href="#maf3970a4a4" x="54" y="72.096182" style="stroke: #000000; stroke-width: 0.8"/>
      </g>
     </g>
     <g id="text_5">
      <!-- $\mathdefault{10^{-8}}$ -->
      <g transform="translate(23.5 75.8954)scale(0.1 -0.1)">
       <defs>
        <path id="DejaVuSans-38" d="M 2034 2216 
Q 1584 2216 1326 1975 
Q 1069 1734 1069 1313 
Q 1069 891 1326 650 
Q 1584 409 2034 409 
Q 2484 409 2743 651 
Q 3003 894 3003 1313 
Q 3003 1734 2745 1975 
Q 2488 2216 2034 2216 
z
M 1403 2484 
Q 997 2584 770 2862 
Q 544 3141 544 3541 
Q 544 4100 942 4425 
Q 1341 4750 2034 4750 
Q 2731 4750 3128 4425 
Q 3525 4100 3525 3541 
Q 3525 3141 3298 2862 
Q 3072 2584 2669 2484 
Q 3125 2378 3379 2068 
Q 3634 1759 3634 1313 
Q 3634 634 3220 271 
Q 2806 -91 2034 -91 
Q 1263 -91 848 271 
Q 434 634 434 1313 
Q 434 1759 690 2068 
Q 947 2378 1403 2484 
z
M 1172 3481 
Q 1172 3119 1398 2916 
Q 1625 2713 2034 2713 
Q 2441 2713 2670 2916 
Q 2900 3119 2900 3481 
Q 2900 3844 2670 4047 
Q 2441 4250 2034 4250 
Q 1625 4250 1398 4047 
Q 1172 3844 1172 3481 
z
" transform="scale(0.015625)"/>
       </defs>
       <use xlink:href="#DejaVuSans-31" transform="translate(0 0.765625)"/>
       <use xlink:href="#DejaVuSans-30" transform="translate(63.623047 0.765625)"/>
       <use xlink:href="#DejaVuSans-2212" transform="translate(128.203125 39.046875)scale(0.7)"/>
       <use xlink:href="#DejaVuSans-38" transform="translate(186.855469 39.046875)scale(0.7)"/>
      </g>
     </g>
    </g>
    <g id="ytick_2">
     <g id="line2d_23">
      <g>
       <use xlink:href="#maf3970a4a4" x="54" y="115.545303" style="stroke: #000000; stroke-width: 0.8"/>
      </g>
     </g>
     <g id="text_6">
      <!-- $\mathdefault{10^{-6}}$ -->
      <g transform="translate(23.5 119.344522)scale(0.1 -0.1)">
       <defs>
        <path id="DejaVuSans-36" d="M 2113 2584 
Q 1688 2584 1439 2293 
Q 1191 2003 1191 1497 
Q 1191 994 1439 701 
Q 1688 409 2113 409 
Q 2538 409 2786 701 
Q 3034 994 3034 1497 
Q 3034 2003 2786 2293 
Q 2538 2584 2113 2584 
z
M 3366 4563 
L 3366 3988 
Q 3128 4100 2886 4159 
Q 2644 4219 2406 4219 
Q 1781 4219 1451 3797 
Q 1122 3375 1075 2522 
Q 1259 2794 1537 2939 
Q 1816 3084 2150 3084 
Q 2853 3084 3261 2657 
Q 3669 2231 3669 1497 
Q 3669 778 3244 343 
Q 2819 -91 2113 -91 
Q 1303 -91 875 529 
Q 447 1150 447 2328 
Q 447 3434 972 4092 
Q 1497 4750 2381 4750 
Q 2619 4750 2861 4703 
Q 3103 4656 3366 4563 
z
" transform="scale(0.015625)"/>
       </defs>
       <use xlink:href="#DejaVuSans-31" transform="translate(0 0.765625)"/>
       <use xlink:href="#DejaVuSans-30" transform="translate(63.623047 0.765625)"/>
       <use xlink:href="#DejaVuSans-2212" transform="translate(128.203125 39.046875)scale(0.7)"/>
       <use xlink:href="#DejaVuSans-36" transform="translate(186.855469 39.046875)scale(0.7)"/>
      </g>
     </g>
    </g>
    <g id="ytick_3">
     <g id="line2d_24">
      <g>
       <use xlink:href="#maf3970a4a4" x="54" y="158.994425" style="stroke: #000000; stroke-width: 0.8"/>
      </g>
     </g>
     <g id="text_7">
      <!-- $\mathdefault{10^{-4}}$ -->
      <g transform="translate(23.5 162.793644)scale(0.1 -0.1)">
       <defs>
        <path id="DejaVuSans-34" d="M 2419 4116 
L 825 1625 
L 2419 1625 
L 2419 4116 
z
M 2253 4666 
L 3047 4666 
L 3047 1625 
L 3713 1625 
L 3713 1100 
L 3047 1100 
L 3047 0 
L 2419 0 
L 2419 1100 
L 313 1100 
L 313 1709 
L 2253 4666 
z
" transform="scale(0.015625)"/>
       </defs>
       <use xlink:href="#DejaVuSans-31" transform="translate(0 0.684375)"/>
       <use xlink:href="#DejaVuSans-30" transform="translate(63.623047 0.684375)"/>
       <use xlink:href="#DejaVuSans-2212" transform="translate(128.203125 38.965625)scale(0.7)"/>
       <use xlink:href="#DejaVuSans-34" transform="translate(186.855469 38.965625)scale(0.7)"/>
      </g>
     </g>
    </g>
    <g id="ytick_4">
     <g id="line2d_25">
      <g>
       <use xlink:href="#maf3970a4a4" x="54" y="202.443547" style="stroke: #000000; stroke-width: 0.8"/>
      </g>
     </g>
     <g id="text_8">
      <!-- $\mathdefault{10^{-2}}$ -->
      <g transform="translate(23.5 206.242765)scale(0.1 -0.1)">
       <use xlink:href="#DejaVuSans-31" transform="translate(0 0.765625)"/>
       <use xlink:href="#DejaVuSans-30" transform="translate(63.623047 0.765625)"/>
       <use xlink:href="#DejaVuSans-2212" transform="translate(128.203125 39.046875)scale(0.7)"/>
       <use xlink:href="#DejaVuSans-32" transform="translate(186.855469 39.046875)scale(0.7)"/>
      </g>
     </g>
    </g>
    <g id="ytick_5">
     <g id="line2d_26">
      <g>
       <use xlink:href="#maf3970a4a4" x="54" y="245.892668" style="stroke: #000000; stroke-width: 0.8"/>
      </g>
     </g>
     <g id="text_9">
      <!-- $\mathdefault{10^{0}}$ -->
      <g transform="translate(29.4 249.691887)scale(0.1 -0.1)">
       <use xlink:href="#DejaVuSans-31" transform="translate(0 0.765625)"/>
       <use xlink:href="#DejaVuSans-30" transform="translate(63.623047 0.765625)"/>
       <use xlink:href="#DejaVuSans-30" transform="translate(128.203125 39.046875)scale(0.7)"/>
      </g>
     </g>
    </g>
    <g id="text_10">
     <!-- 1-Fidelity -->
     <g transform="translate(17.420312 166.115938)rotate(-90)scale(0.1 -0.1)">
      <defs>
       <path id="DejaVuSans-2d" d="M 313 2009 
L 1997 2009 
L 1997 1497 
L 313 1497 
L 313 2009 
z
" transform="scale(0.015625)"/>
       <path id="DejaVuSans-46" d="M 628 4666 
L 3309 4666 
L 3309 4134 
L 1259 4134 
L 1259 2759 
L 3109 2759 
L 3109 2228 
L 1259 2228 
L 1259 0 
L 628 0 
L 628 4666 
z
" transform="scale(0.015625)"/>
       <path id="DejaVuSans-74" d="M 1172 4494 
L 1172 3500 
L 2356 3500 
L 2356 3053 
L 1172 3053 
L 1172 1153 
Q 1172 725 1289 603 
Q 1406 481 1766 481 
L 2356 481 
L 2356 0 
L 1766 0 
Q 1100 0 847 248 
Q 594 497 594 1153 
L 594 3053 
L 172 3053 
L 172 3500 
L 594 3500 
L 594 4494 
L 1172 4494 
z
" transform="scale(0.015625)"/>
       <path id="DejaVuSans-79" d="M 2059 -325 
Q 1816 -950 1584 -1140 
Q 1353 -1331 966 -1331 
L 506 -1331 
L 506 -850 
L 844 -850 
Q 1081 -850 1212 -737 
Q 1344 -625 1503 -206 
L 1606 56 
L 191 3500 
L 800 3500 
L 1894 763 
L 2988 3500 
L 3597 3500 
L 2059 -325 
z
" transform="scale(0.015625)"/>
      </defs>
      <use xlink:href="#DejaVuSans-31"/>
      <use xlink:href="#DejaVuSans-2d" x="63.623047"/>
      <use xlink:href="#DejaVuSans-46" x="99.707031"/>
      <use xlink:href="#DejaVuSans-69" x="149.976562"/>
      <use xlink:href="#DejaVuSans-64" x="177.759766"/>
      <use xlink:href="#DejaVuSans-65" x="241.236328"/>
      <use xlink:href="#DejaVuSans-6c" x="302.759766"/>
      <use xlink:href="#DejaVuSans-69" x="330.542969"/>
      <use xlink:href="#DejaVuSans-74" x="358.326172"/>
      <use xlink:href="#DejaVuSans-79" x="397.535156"/>
     </g>
    </g>
   </g>
   <g id="line2d_27">
    <path d="M 69.218182 50.971607 
L 112.698701 141.553055 
L 156.179221 189.724337 
L 199.65974 215.673 
L 243.14026 229.596796 
L 286.620779 236.801337 
L 330.101299 240.321625 
L 373.581818 242.116364 
" clip-path="url(#p99cc011efb)" style="fill: none; stroke: #0000ff; stroke-width: 1.5; stroke-linecap: square"/>
    <defs>
     <path id="mc049e2c2fd" d="M 0 1.5 
C 0.397805 1.5 0.77937 1.341951 1.06066 1.06066 
C 1.341951 0.77937 1.5 0.397805 1.5 0 
C 1.5 -0.397805 1.341951 -0.77937 1.06066 -1.06066 
C 0.77937 -1.341951 0.397805 -1.5 0 -1.5 
C -0.397805 -1.5 -0.77937 -1.341951 -1.06066 -1.06066 
C -1.341951 -0.77937 -1.5 -0.397805 -1.5 0 
C -1.5 0.397805 -1.341951 0.77937 -1.06066 1.06066 
C -0.77937 1.341951 -0.397805 1.5 0 1.5 
z
" style="stroke: #0000ff"/>
    </defs>
    <g clip-path="url(#p99cc011efb)">
     <use xlink:href="#mc049e2c2fd" x="69.218182" y="50.971607" style="fill: #0000ff; stroke: #0000ff"/>
     <use xlink:href="#mc049e2c2fd" x="112.698701" y="141.553055" style="fill: #0000ff; stroke: #0000ff"/>
     <use xlink:href="#mc049e2c2fd" x="156.179221" y="189.724337" style="fill: #0000ff; stroke: #0000ff"/>
     <use xlink:href="#mc049e2c2fd" x="199.65974" y="215.673" style="fill: #0000ff; stroke: #0000ff"/>
     <use xlink:href="#mc049e2c2fd" x="243.14026" y="229.596796" style="fill: #0000ff; stroke: #0000ff"/>
     <use xlink:href="#mc049e2c2fd" x="286.620779" y="236.801337" style="fill: #0000ff; stroke: #0000ff"/>
     <use xlink:href="#mc049e2c2fd" x="330.101299" y="240.321625" style="fill: #0000ff; stroke: #0000ff"/>
     <use xlink:href="#mc049e2c2fd" x="373.581818" y="242.116364" style="fill: #0000ff; stroke: #0000ff"/>
    </g>
   </g>
   <g id="line2d_28">
    <path d="M 69.218182 44.443636 
L 112.698701 135.01334 
L 156.179221 183.187662 
L 199.65974 209.182576 
L 243.14026 223.297396 
L 286.620779 230.908737 
L 330.101299 235.160764 
L 373.581818 238.062983 
" clip-path="url(#p99cc011efb)" style="fill: none; stroke: #00bfbf; stroke-width: 1.5; stroke-linecap: square"/>
    <defs>
     <path id="mdac75bcfb4" d="M 0 1.5 
C 0.397805 1.5 0.77937 1.341951 1.06066 1.06066 
C 1.341951 0.77937 1.5 0.397805 1.5 0 
C 1.5 -0.397805 1.341951 -0.77937 1.06066 -1.06066 
C 0.77937 -1.341951 0.397805 -1.5 0 -1.5 
C -0.397805 -1.5 -0.77937 -1.341951 -1.06066 -1.06066 
C -1.341951 -0.77937 -1.5 -0.397805 -1.5 0 
C -1.5 0.397805 -1.341951 0.77937 -1.06066 1.06066 
C -0.77937 1.341951 -0.397805 1.5 0 1.5 
z
" style="stroke: #00bfbf"/>
    </defs>
    <g clip-path="url(#p99cc011efb)">
     <use xlink:href="#mdac75bcfb4" x="69.218182" y="44.443636" style="fill: #00bfbf; stroke: #00bfbf"/>
     <use xlink:href="#mdac75bcfb4" x="112.698701" y="135.01334" style="fill: #00bfbf; stroke: #00bfbf"/>
     <use xlink:href="#mdac75bcfb4" x="156.179221" y="183.187662" style="fill: #00bfbf; stroke: #00bfbf"/>
     <use xlink:href="#mdac75bcfb4" x="199.65974" y="209.182576" style="fill: #00bfbf; stroke: #00bfbf"/>
     <use xlink:href="#mdac75bcfb4" x="243.14026" y="223.297396" style="fill: #00bfbf; stroke: #00bfbf"/>
     <use xlink:href="#mdac75bcfb4" x="286.620779" y="230.908737" style="fill: #00bfbf; stroke: #00bfbf"/>
     <use xlink:href="#mdac75bcfb4" x="330.101299" y="235.160764" style="fill: #00bfbf; stroke: #00bfbf"/>
     <use xlink:href="#mdac75bcfb4" x="373.581818" y="238.062983" style="fill: #00bfbf; stroke: #00bfbf"/>
    </g>
   </g>
   <g id="line2d_29">
    <path d="M 69.218182 122.072466 
L 112.698701 134.474807 
L 156.179221 147.009242 
L 199.65974 165.953519 
L 243.14026 189.990689 
L 286.620779 206.237697 
L 330.101299 217.671472 
L 373.581818 226.861002 
" clip-path="url(#p99cc011efb)" style="fill: none; stroke: #ff0000; stroke-width: 1.5; stroke-linecap: square"/>
    <defs>
     <path id="m6b704ac5dd" d="M 0 1.5 
C 0.397805 1.5 0.77937 1.341951 1.06066 1.06066 
C 1.341951 0.77937 1.5 0.397805 1.5 0 
C 1.5 -0.397805 1.341951 -0.77937 1.06066 -1.06066 
C 0.77937 -1.341951 0.397805 -1.5 0 -1.5 
C -0.397805 -1.5 -0.77937 -1.341951 -1.06066 -1.06066 
C -1.341951 -0.77937 -1.5 -0.397805 -1.5 0 
C -1.5 0.397805 -1.341951 0.77937 -1.06066 1.06066 
C -0.77937 1.341951 -0.397805 1.5 0 1.5 
z
" style="stroke: #ff0000"/>
    </defs>
    <g clip-path="url(#p99cc011efb)">
     <use xlink:href="#m6b704ac5dd" x="69.218182" y="122.072466" style="fill: #ff0000; stroke: #ff0000"/>
     <use xlink:href="#m6b704ac5dd" x="112.698701" y="134.474807" style="fill: #ff0000; stroke: #ff0000"/>
     <use xlink:href="#m6b704ac5dd" x="156.179221" y="147.009242" style="fill: #ff0000; stroke: #ff0000"/>
     <use xlink:href="#m6b704ac5dd" x="199.65974" y="165.953519" style="fill: #ff0000; stroke: #ff0000"/>
     <use xlink:href="#m6b704ac5dd" x="243.14026" y="189.990689" style="fill: #ff0000; stroke: #ff0000"/>
     <use xlink:href="#m6b704ac5dd" x="286.620779" y="206.237697" style="fill: #ff0000; stroke: #ff0000"/>
     <use xlink:href="#m6b704ac5dd" x="330.101299" y="217.671472" style="fill: #ff0000; stroke: #ff0000"/>
     <use xlink:href="#m6b704ac5dd" x="373.581818" y="226.861002" style="fill: #ff0000; stroke: #ff0000"/>
    </g>
   </g>
   <g id="line2d_30">
    <path d="M 69.218182 187.239867 
L 112.698701 193.429339 
L 156.179221 199.602514 
L 199.65974 205.744306 
L 243.14026 211.82582 
L 286.620779 217.792131 
L 330.101299 223.542761 
L 373.581818 228.95488 
" clip-path="url(#p99cc011efb)" style="fill: none; stroke: #008000; stroke-width: 1.5; stroke-linecap: square"/>
    <defs>
     <path id="m63c4b4d4d5" d="M 0 1.5 
C 0.397805 1.5 0.77937 1.341951 1.06066 1.06066 
C 1.341951 0.77937 1.5 0.397805 1.5 0 
C 1.5 -0.397805 1.341951 -0.77937 1.06066 -1.06066 
C 0.77937 -1.341951 0.397805 -1.5 0 -1.5 
C -0.397805 -1.5 -0.77937 -1.341951 -1.06066 -1.06066 
C -1.341951 -0.77937 -1.5 -0.397805 -1.5 0 
C -1.5 0.397805 -1.341951 0.77937 -1.06066 1.06066 
C -0.77937 1.341951 -0.397805 1.5 0 1.5 
z
" style="stroke: #008000"/>
    </defs>
    <g clip-path="url(#p99cc011efb)">
     <use xlink:href="#m63c4b4d4d5" x="69.218182" y="187.239867" style="fill: #008000; stroke: #008000"/>
     <use xlink:href="#m63c4b4d4d5" x="112.698701" y="193.429339" style="fill: #008000; stroke: #008000"/>
     <use xlink:href="#m63c4b4d4d5" x="156.179221" y="199.602514" style="fill: #008000; stroke: #008000"/>
     <use xlink:href="#m63c4b4d4d5" x="199.65974" y="205.744306" style="fill: #008000; stroke: #008000"/>
     <use xlink:href="#m63c4b4d4d5" x="243.14026" y="211.82582" style="fill: #008000; stroke: #008000"/>
     <use xlink:href="#m63c4b4d4d5" x="286.620779" y="217.792131" style="fill: #008000; stroke: #008000"/>
     <use xlink:href="#m63c4b4d4d5" x="330.101299" y="223.542761" style="fill: #008000; stroke: #008000"/>
     <use xlink:href="#m63c4b4d4d5" x="373.581818" y="228.95488" style="fill: #008000; stroke: #008000"/>
    </g>
   </g>
   <g id="line2d_31">
    <path d="M 69.218182 187.239869 
L 112.698701 193.448556 
L 156.179221 201.11807 
L 199.65974 214.07962 
L 243.14026 225.548173 
L 286.620779 232.614292 
L 330.101299 236.867095 
L 373.581818 239.885439 
" clip-path="url(#p99cc011efb)" style="fill: none; stroke-dasharray: 5.55,2.4; stroke-dashoffset: 0; stroke: #00bfbf; stroke-width: 1.5"/>
    <g clip-path="url(#p99cc011efb)">
     <use xlink:href="#mdac75bcfb4" x="69.218182" y="187.239869" style="fill: #00bfbf; stroke: #00bfbf"/>
     <use xlink:href="#mdac75bcfb4" x="112.698701" y="193.448556" style="fill: #00bfbf; stroke: #00bfbf"/>
     <use xlink:href="#mdac75bcfb4" x="156.179221" y="201.11807" style="fill: #00bfbf; stroke: #00bfbf"/>
     <use xlink:href="#mdac75bcfb4" x="199.65974" y="214.07962" style="fill: #00bfbf; stroke: #00bfbf"/>
     <use xlink:href="#mdac75bcfb4" x="243.14026" y="225.548173" style="fill: #00bfbf; stroke: #00bfbf"/>
     <use xlink:href="#mdac75bcfb4" x="286.620779" y="232.614292" style="fill: #00bfbf; stroke: #00bfbf"/>
     <use xlink:href="#mdac75bcfb4" x="330.101299" y="236.867095" style="fill: #00bfbf; stroke: #00bfbf"/>
     <use xlink:href="#mdac75bcfb4" x="373.581818" y="239.885439" style="fill: #00bfbf; stroke: #00bfbf"/>
    </g>
   </g>
   <g id="line2d_32">
    <path d="M 69.218182 187.239868 
L 112.698701 193.438953 
L 156.179221 200.39069 
L 199.65974 210.803987 
L 243.14026 220.988642 
L 286.620779 227.857271 
L 330.101299 232.417435 
L 373.581818 236.107619 
" clip-path="url(#p99cc011efb)" style="fill: none; stroke-dasharray: 5.55,2.4; stroke-dashoffset: 0; stroke: #ff0000; stroke-width: 1.5"/>
    <g clip-path="url(#p99cc011efb)">
     <use xlink:href="#m6b704ac5dd" x="69.218182" y="187.239868" style="fill: #ff0000; stroke: #ff0000"/>
     <use xlink:href="#m6b704ac5dd" x="112.698701" y="193.438953" style="fill: #ff0000; stroke: #ff0000"/>
     <use xlink:href="#m6b704ac5dd" x="156.179221" y="200.39069" style="fill: #ff0000; stroke: #ff0000"/>
     <use xlink:href="#m6b704ac5dd" x="199.65974" y="210.803987" style="fill: #ff0000; stroke: #ff0000"/>
     <use xlink:href="#m6b704ac5dd" x="243.14026" y="220.988642" style="fill: #ff0000; stroke: #ff0000"/>
     <use xlink:href="#m6b704ac5dd" x="286.620779" y="227.857271" style="fill: #ff0000; stroke: #ff0000"/>
     <use xlink:href="#m6b704ac5dd" x="330.101299" y="232.417435" style="fill: #ff0000; stroke: #ff0000"/>
     <use xlink:href="#m6b704ac5dd" x="373.581818" y="236.107619" style="fill: #ff0000; stroke: #ff0000"/>
    </g>
   </g>
   <g id="patch_3">
    <path d="M 54 252 
L 54 34.56 
" style="fill: none; stroke: #000000; stroke-width: 0.8; stroke-linejoin: miter; stroke-linecap: square"/>
   </g>
   <g id="patch_4">
    <path d="M 388.8 252 
L 388.8 34.56 
" style="fill: none; stroke: #000000; stroke-width: 0.8; stroke-linejoin: miter; stroke-linecap: square"/>
   </g>
   <g id="patch_5">
    <path d="M 54 252 
L 388.8 252 
" style="fill: none; stroke: #000000; stroke-width: 0.8; stroke-linejoin: miter; stroke-linecap: square"/>
   </g>
   <g id="patch_6">
    <path d="M 54 34.56 
L 388.8 34.56 
" style="fill: none; stroke: #000000; stroke-width: 0.8; stroke-linejoin: miter; stroke-linecap: square"/>
   </g>
   <g id="text_11">
    <!-- d=16,m_i=16, no post-selection -->
    <g transform="translate(124.561875 28.56)scale(0.12 -0.12)">
     <defs>
      <path id="DejaVuSans-3d" d="M 678 2906 
L 4684 2906 
L 4684 2381 
L 678 2381 
L 678 2906 
z
M 678 1631 
L 4684 1631 
L 4684 1100 
L 678 1100 
L 678 1631 
z
" transform="scale(0.015625)"/>
      <path id="DejaVuSans-2c" d="M 750 794 
L 1409 794 
L 1409 256 
L 897 -744 
L 494 -744 
L 750 256 
L 750 794 
z
" transform="scale(0.015625)"/>
      <path id="DejaVuSans-6d" d="M 3328 2828 
Q 3544 3216 3844 3400 
Q 4144 3584 4550 3584 
Q 5097 3584 5394 3201 
Q 5691 2819 5691 2113 
L 5691 0 
L 5113 0 
L 5113 2094 
Q 5113 2597 4934 2840 
Q 4756 3084 4391 3084 
Q 3944 3084 3684 2787 
Q 3425 2491 3425 1978 
L 3425 0 
L 2847 0 
L 2847 2094 
Q 2847 2600 2669 2842 
Q 2491 3084 2119 3084 
Q 1678 3084 1418 2786 
Q 1159 2488 1159 1978 
L 1159 0 
L 581 0 
L 581 3500 
L 1159 3500 
L 1159 2956 
Q 1356 3278 1631 3431 
Q 1906 3584 2284 3584 
Q 2666 3584 2933 3390 
Q 3200 3197 3328 2828 
z
" transform="scale(0.015625)"/>
      <path id="DejaVuSans-5f" d="M 3263 -1063 
L 3263 -1509 
L -63 -1509 
L -63 -1063 
L 3263 -1063 
z
" transform="scale(0.015625)"/>
      <path id="DejaVuSans-63" d="M 3122 3366 
L 3122 2828 
Q 2878 2963 2633 3030 
Q 2388 3097 2138 3097 
Q 1578 3097 1268 2742 
Q 959 2388 959 1747 
Q 959 1106 1268 751 
Q 1578 397 2138 397 
Q 2388 397 2633 464 
Q 2878 531 3122 666 
L 3122 134 
Q 2881 22 2623 -34 
Q 2366 -91 2075 -91 
Q 1284 -91 818 406 
Q 353 903 353 1747 
Q 353 2603 823 3093 
Q 1294 3584 2113 3584 
Q 2378 3584 2631 3529 
Q 2884 3475 3122 3366 
z
" transform="scale(0.015625)"/>
     </defs>
     <use xlink:href="#DejaVuSans-64"/>
     <use xlink:href="#DejaVuSans-3d" x="63.476562"/>
     <use xlink:href="#DejaVuSans-31" x="147.265625"/>
     <use xlink:href="#DejaVuSans-36" x="210.888672"/>
     <use xlink:href="#DejaVuSans-2c" x="274.511719"/>
     <use xlink:href="#DejaVuSans-6d" x="306.298828"/>
     <use xlink:href="#DejaVuSans-5f" x="403.710938"/>
     <use xlink:href="#DejaVuSans-69" x="453.710938"/>
     <use xlink:href="#DejaVuSans-3d" x="481.494141"/>
     <use xlink:href="#DejaVuSans-31" x="565.283203"/>
     <use xlink:href="#DejaVuSans-36" x="628.90625"/>
     <use xlink:href="#DejaVuSans-2c" x="692.529297"/>
     <use xlink:href="#DejaVuSans-20" x="724.316406"/>
     <use xlink:href="#DejaVuSans-6e" x="756.103516"/>
     <use xlink:href="#DejaVuSans-6f" x="819.482422"/>
     <use xlink:href="#DejaVuSans-20" x="880.664062"/>
     <use xlink:href="#DejaVuSans-70" x="912.451172"/>
     <use xlink:href="#DejaVuSans-6f" x="975.927734"/>
     <use xlink:href="#DejaVuSans-73" x="1037.109375"/>
     <use xlink:href="#DejaVuSans-74" x="1089.208984"/>
     <use xlink:href="#DejaVuSans-2d" x="1128.417969"/>
     <use xlink:href="#DejaVuSans-73" x="1164.501953"/>
     <use xlink:href="#DejaVuSans-65" x="1216.601562"/>
     <use xlink:href="#DejaVuSans-6c" x="1278.125"/>
     <use xlink:href="#DejaVuSans-65" x="1305.908203"/>
     <use xlink:href="#DejaVuSans-63" x="1367.431641"/>
     <use xlink:href="#DejaVuSans-74" x="1422.412109"/>
     <use xlink:href="#DejaVuSans-69" x="1461.621094"/>
     <use xlink:href="#DejaVuSans-6f" x="1489.404297"/>
     <use xlink:href="#DejaVuSans-6e" x="1550.585938"/>
    </g>
   </g>
   <g id="legend_1">
    <g id="patch_7">
     <path d="M 264.907812 132.2975 
L 381.8 132.2975 
Q 383.8 132.2975 383.8 130.2975 
L 383.8 41.56 
Q 383.8 39.56 381.8 39.56 
L 264.907812 39.56 
Q 262.907812 39.56 262.907812 41.56 
L 262.907812 130.2975 
Q 262.907812 132.2975 264.907812 132.2975 
z
" style="fill: #ffffff; opacity: 0.8; stroke: #cccccc; stroke-linejoin: miter"/>
    </g>
    <g id="line2d_33">
     <path d="M 266.907812 47.658438 
L 276.907812 47.658438 
L 286.907812 47.658438 
" style="fill: none; stroke: #0000ff; stroke-width: 1.5; stroke-linecap: square"/>
     <g>
      <use xlink:href="#mc049e2c2fd" x="276.907812" y="47.658438" style="fill: #0000ff; stroke: #0000ff"/>
     </g>
    </g>
    <g id="text_12">
     <!-- m_c=16 -->
     <g transform="translate(294.907812 51.158438)scale(0.1 -0.1)">
      <use xlink:href="#DejaVuSans-6d"/>
      <use xlink:href="#DejaVuSans-5f" x="97.412109"/>
      <use xlink:href="#DejaVuSans-63" x="147.412109"/>
      <use xlink:href="#DejaVuSans-3d" x="202.392578"/>
      <use xlink:href="#DejaVuSans-31" x="286.181641"/>
      <use xlink:href="#DejaVuSans-36" x="349.804688"/>
     </g>
    </g>
    <g id="line2d_34">
     <path d="M 266.907812 62.614688 
L 276.907812 62.614688 
L 286.907812 62.614688 
" style="fill: none; stroke: #00bfbf; stroke-width: 1.5; stroke-linecap: square"/>
     <g>
      <use xlink:href="#mdac75bcfb4" x="276.907812" y="62.614688" style="fill: #00bfbf; stroke: #00bfbf"/>
     </g>
    </g>
    <g id="text_13">
     <!-- m_c=8 -->
     <g transform="translate(294.907812 66.114688)scale(0.1 -0.1)">
      <use xlink:href="#DejaVuSans-6d"/>
      <use xlink:href="#DejaVuSans-5f" x="97.412109"/>
      <use xlink:href="#DejaVuSans-63" x="147.412109"/>
      <use xlink:href="#DejaVuSans-3d" x="202.392578"/>
      <use xlink:href="#DejaVuSans-38" x="286.181641"/>
     </g>
    </g>
    <g id="line2d_35">
     <path d="M 266.907812 77.570938 
L 276.907812 77.570938 
L 286.907812 77.570938 
" style="fill: none; stroke: #ff0000; stroke-width: 1.5; stroke-linecap: square"/>
     <g>
      <use xlink:href="#m6b704ac5dd" x="276.907812" y="77.570938" style="fill: #ff0000; stroke: #ff0000"/>
     </g>
    </g>
    <g id="text_14">
     <!-- m_c=4 -->
     <g transform="translate(294.907812 81.070938)scale(0.1 -0.1)">
      <use xlink:href="#DejaVuSans-6d"/>
      <use xlink:href="#DejaVuSans-5f" x="97.412109"/>
      <use xlink:href="#DejaVuSans-63" x="147.412109"/>
      <use xlink:href="#DejaVuSans-3d" x="202.392578"/>
      <use xlink:href="#DejaVuSans-34" x="286.181641"/>
     </g>
    </g>
    <g id="line2d_36">
     <path d="M 266.907812 92.527188 
L 276.907812 92.527188 
L 286.907812 92.527188 
" style="fill: none; stroke: #008000; stroke-width: 1.5; stroke-linecap: square"/>
     <g>
      <use xlink:href="#m63c4b4d4d5" x="276.907812" y="92.527188" style="fill: #008000; stroke: #008000"/>
     </g>
    </g>
    <g id="text_15">
     <!-- m_c=2 -->
     <g transform="translate(294.907812 96.027188)scale(0.1 -0.1)">
      <use xlink:href="#DejaVuSans-6d"/>
      <use xlink:href="#DejaVuSans-5f" x="97.412109"/>
      <use xlink:href="#DejaVuSans-63" x="147.412109"/>
      <use xlink:href="#DejaVuSans-3d" x="202.392578"/>
      <use xlink:href="#DejaVuSans-32" x="286.181641"/>
     </g>
    </g>
    <g id="line2d_37">
     <path d="M 266.907812 107.483438 
L 276.907812 107.483438 
L 286.907812 107.483438 
" style="fill: none; stroke-dasharray: 5.55,2.4; stroke-dashoffset: 0; stroke: #00bfbf; stroke-width: 1.5"/>
     <g>
      <use xlink:href="#mdac75bcfb4" x="276.907812" y="107.483438" style="fill: #00bfbf; stroke: #00bfbf"/>
     </g>
    </g>
    <g id="text_16">
     <!-- m_c=8 no comm -->
     <g transform="translate(294.907812 110.983438)scale(0.1 -0.1)">
      <use xlink:href="#DejaVuSans-6d"/>
      <use xlink:href="#DejaVuSans-5f" x="97.412109"/>
      <use xlink:href="#DejaVuSans-63" x="147.412109"/>
      <use xlink:href="#DejaVuSans-3d" x="202.392578"/>
      <use xlink:href="#DejaVuSans-38" x="286.181641"/>
      <use xlink:href="#DejaVuSans-20" x="349.804688"/>
      <use xlink:href="#DejaVuSans-6e" x="381.591797"/>
      <use xlink:href="#DejaVuSans-6f" x="444.970703"/>
      <use xlink:href="#DejaVuSans-20" x="506.152344"/>
      <use xlink:href="#DejaVuSans-63" x="537.939453"/>
      <use xlink:href="#DejaVuSans-6f" x="592.919922"/>
      <use xlink:href="#DejaVuSans-6d" x="654.101562"/>
      <use xlink:href="#DejaVuSans-6d" x="751.513672"/>
     </g>
    </g>
    <g id="line2d_38">
     <path d="M 266.907812 122.439688 
L 276.907812 122.439688 
L 286.907812 122.439688 
" style="fill: none; stroke-dasharray: 5.55,2.4; stroke-dashoffset: 0; stroke: #ff0000; stroke-width: 1.5"/>
     <g>
      <use xlink:href="#m6b704ac5dd" x="276.907812" y="122.439688" style="fill: #ff0000; stroke: #ff0000"/>
     </g>
    </g>
    <g id="text_17">
     <!-- m_c=4 no comm -->
     <g transform="translate(294.907812 125.939688)scale(0.1 -0.1)">
      <use xlink:href="#DejaVuSans-6d"/>
      <use xlink:href="#DejaVuSans-5f" x="97.412109"/>
      <use xlink:href="#DejaVuSans-63" x="147.412109"/>
      <use xlink:href="#DejaVuSans-3d" x="202.392578"/>
      <use xlink:href="#DejaVuSans-34" x="286.181641"/>
      <use xlink:href="#DejaVuSans-20" x="349.804688"/>
      <use xlink:href="#DejaVuSans-6e" x="381.591797"/>
      <use xlink:href="#DejaVuSans-6f" x="444.970703"/>
      <use xlink:href="#DejaVuSans-20" x="506.152344"/>
      <use xlink:href="#DejaVuSans-63" x="537.939453"/>
      <use xlink:href="#DejaVuSans-6f" x="592.919922"/>
      <use xlink:href="#DejaVuSans-6d" x="654.101562"/>
      <use xlink:href="#DejaVuSans-6d" x="751.513672"/>
     </g>
    </g>
   </g>
  </g>
 </g>
 <defs>
  <clipPath id="p99cc011efb">
   <rect x="54" y="34.56" width="334.8" height="217.44"/>
  </clipPath>
 </defs>
</svg>
